<svg width="128" height="128" viewBox="0 0 128 128" fill="none" xmlns="http://www.w3.org/2000/svg">
<path d="M63.6 118.8C35.7 118.8 5.59998 101.3 5.59998 62.9C5.59998 24.5 35.7 7 63.6 7C79.1 7 93.4 12.1 104 21.4C115.5 31.6 121.6 46 121.6 62.9C121.6 79.8 115.5 94.1 104 104.3C93.4 113.6 79 118.8 63.6 118.8Z" fill="url(#paint0_radial_116_32)"/>
<path d="M63.6 118.8C35.7 118.8 5.59998 101.3 5.59998 62.9C5.59998 24.5 35.7 7 63.6 7C79.1 7 93.4 12.1 104 21.4C115.5 31.6 121.6 46 121.6 62.9C121.6 79.8 115.5 94.1 104 104.3C93.4 113.6 79 118.8 63.6 118.8Z" fill="url(#paint1_radial_116_32)"/>
<path d="M111.49 29.67C116.82 38.27 119.6 48.51 119.6 59.9C119.6 76.8 113.5 91.1 102 101.3C91.4 110.6 77 115.8 61.6 115.8C43.54 115.8 24.6 108.45 13.42 92.86C24.18 110.52 44.42 118.8 63.6 118.8C79 118.8 93.4 113.6 104 104.3C115.5 94.1 121.6 79.8 121.6 62.9C121.6 50.16 118.13 38.84 111.49 29.67V29.67Z" fill="#018CE3"/>
<path d="M70.18 19.19C76.7 20 88.11 21.63 85.66 11.86C83.21 2.09001 66.93 5.34001 60.41 4.53001C53.89 3.72001 43.3 1.27001 36.78 5.34001C30.26 9.41001 25.38 19.19 20.49 20.82C15.6 22.45 13.16 22.45 10.31 26.93C7.75998 30.94 5.22998 38.57 6.99998 44C8.76998 49.43 15.75 44.75 26.25 33.25" fill="url(#paint2_linear_116_32)"/>
<path d="M30.94 66.3C30.8804 66.078 30.7357 65.8885 30.5373 65.7725C30.3389 65.6564 30.1027 65.6232 29.88 65.68H29.87L27.7 66.26C27.16 66.38 26.59 66.3 26.09 66.05L22.29 63.86C22.1738 63.817 22.0792 63.7298 22.0268 63.6175C21.9744 63.5052 21.9684 63.3767 22.01 63.26C22.06 63.13 22.16 63.03 22.29 62.98L26.09 60.78C26.59 60.53 27.15 60.46 27.7 60.57L29.87 61.16C29.9816 61.1957 30.0992 61.209 30.216 61.1992C30.3328 61.1893 30.4464 61.1565 30.5505 61.1026C30.6546 61.0488 30.747 60.9749 30.8224 60.8852C30.8978 60.7955 30.9548 60.6918 30.99 60.58C30.99 60.57 31 60.55 31 60.54L31.34 59.28C31.3704 59.1684 31.3785 59.0518 31.3638 58.9371C31.3491 58.8223 31.3119 58.7116 31.2543 58.6113C31.1967 58.5109 31.1198 58.423 31.0281 58.3524C30.9365 58.2818 30.8318 58.23 30.72 58.2L29.4 57.85C29.1781 57.7903 28.9885 57.6456 28.8725 57.4472C28.7565 57.2488 28.7232 57.0127 28.78 56.79V56.78L29.13 55.47C29.1893 55.2446 29.1574 55.005 29.0414 54.8029C28.9254 54.6008 28.7345 54.4525 28.51 54.39L27.19 54C27.0784 53.9696 26.9619 53.9615 26.8471 53.9762C26.7324 53.9909 26.6216 54.0282 26.5213 54.0858C26.421 54.1434 26.333 54.2202 26.2624 54.3119C26.1918 54.4036 26.14 54.5083 26.11 54.62L25.54 56.8C25.37 57.33 25.01 57.79 24.54 58.09L20.74 60.28C20.33 60.53 19.99 60.28 19.99 59.85V55.52C20.02 54.96 20.23 54.44 20.6 54.02L22.2 52.43C22.54 52.09 22.54 51.53 22.2 51.19L21.26 50.25C21.0969 50.087 20.8757 49.9954 20.645 49.9954C20.4144 49.9954 20.1932 50.087 20.03 50.25L19.03 51.25C18.69 51.59 18.13 51.59 17.79 51.25L16.79 50.25C16.6269 50.087 16.4057 49.9954 16.175 49.9954C15.9444 49.9954 15.7232 50.087 15.56 50.25L14.62 51.18C14.28 51.52 14.28 52.08 14.62 52.42L16.3 54C16.67 54.41 16.89 54.94 16.92 55.5V59.89C16.92 60.37 16.58 60.57 16.16 60.33L12.37 58.13C11.893 57.82 11.5393 57.3531 11.37 56.81L10.78 54.64C10.7231 54.4153 10.5798 54.2222 10.3814 54.1024C10.183 53.9826 9.94538 53.9458 9.72003 54L8.45003 54.34C7.98003 54.47 7.70003 54.95 7.83003 55.42L8.18003 56.74C8.30003 57.21 8.02003 57.68 7.56003 57.81L6.24003 58.16C5.77003 58.29 5.49003 58.77 5.61003 59.24L6.00003 60.55C6.13003 60.98 6.56003 61.24 7.00003 61.16L9.19003 60.57C9.7362 60.4612 10.3031 60.5387 10.8 60.79L14.65 63C14.89 63.09 15.02 63.36 14.93 63.6C14.88 63.73 14.78 63.83 14.65 63.88L10.85 66.08C10.35 66.33 9.79003 66.4 9.24003 66.29L7.05003 65.7C6.83151 65.6474 6.60115 65.6802 6.40601 65.7917C6.21086 65.9032 6.06565 66.085 6.00003 66.3L5.66003 67.57C5.53003 68.04 5.81003 68.52 6.28003 68.65L7.57003 69C8.03003 69.11 8.31003 69.58 8.20003 70.04C8.20003 70.05 8.20003 70.06 8.19003 70.07L7.84003 71.39C7.71003 71.85 7.99003 72.33 8.45003 72.46H8.46003L9.73003 72.8C10.2 72.92 10.68 72.65 10.81 72.18L11.38 70C11.55 69.47 11.91 69.02 12.38 68.72L16.17 66.52C16.59 66.28 16.93 66.52 16.93 66.96V71.35C16.9 71.91 16.68 72.43 16.31 72.85L14.72 74.44C14.38 74.78 14.38 75.34 14.72 75.68L15.66 76.59C16 76.93 16.55 76.93 16.89 76.59L17.89 75.59C18.23 75.25 18.79 75.25 19.13 75.59L20.13 76.59C20.47 76.93 21.02 76.93 21.36 76.59L22.3 75.65C22.64 75.31 22.64 74.75 22.3 74.41L20.7 72.82C20.33 72.4 20.12 71.88 20.09 71.32V66.93C20.09 66.45 20.43 66.25 20.84 66.5L24.64 68.69C25.11 69 25.47 69.46 25.64 70L26.22 72.17C26.35 72.64 26.83 72.92 27.3 72.79L28.57 72.45C29.03 72.34 29.31 71.87 29.2 71.41C29.2 71.4 29.2 71.39 29.19 71.38L28.84 70.06C28.72 69.63 28.94 69.17 29.36 69L30.68 68.65C31.14 68.54 31.42 68.07 31.31 67.61C31.31 67.6 31.31 67.59 31.3 67.58L30.94 66.3V66.3ZM121.53 48.64C121.569 48.5146 121.583 48.3827 121.571 48.2519C121.559 48.1211 121.521 47.994 121.46 47.8778C121.399 47.7617 121.315 47.6588 121.214 47.5751C121.112 47.4913 120.996 47.4285 120.87 47.39C120.86 47.39 120.85 47.38 120.83 47.38L118.31 46.68C117.69 46.48 117.17 46.07 116.82 45.52L114.32 41.08C114.228 40.9734 114.182 40.8351 114.192 40.6948C114.201 40.5545 114.265 40.4235 114.37 40.33L114.38 40.32C114.51 40.21 114.68 40.17 114.84 40.2H119.93C120.58 40.24 121.19 40.5 121.67 40.93L123.5 42.8C123.88 43.2 124.52 43.21 124.91 42.83L124.94 42.8L126 41.8C126.4 41.42 126.42 40.79 126.04 40.39L126 40.35L124.89 39.22C124.795 39.1295 124.719 39.0212 124.667 38.9013C124.614 38.7813 124.585 38.6522 124.582 38.5212C124.58 38.3903 124.603 38.26 124.65 38.138C124.698 38.0159 124.769 37.9045 124.86 37.81L124.89 37.78L126.02 36.67C126.42 36.29 126.44 35.66 126.06 35.26L126.02 35.22L125 34.13C124.91 34.0353 124.801 33.9594 124.681 33.9066C124.561 33.8539 124.432 33.8253 124.301 33.8225C124.17 33.8197 124.04 33.8428 123.918 33.8904C123.796 33.938 123.684 34.0092 123.59 34.1L123.56 34.13L121.72 36C121.23 36.42 120.62 36.67 119.97 36.7L114.87 36.65C114.31 36.65 114.09 36.25 114.37 35.77L117 31.37C117.36 30.83 117.89 30.43 118.5 30.24L121.04 29.59C121.58 29.46 121.91 28.92 121.78 28.38C121.78 28.37 121.77 28.36 121.77 28.35L121.39 26.85C121.26 26.31 120.72 25.98 120.18 26.11C120.17 26.11 120.16 26.12 120.15 26.12L118.62 26.51C118.493 26.5441 118.361 26.5527 118.231 26.5354C118.101 26.5181 117.976 26.4752 117.862 26.4092C117.749 26.3432 117.649 26.2553 117.57 26.1508C117.491 26.0462 117.433 25.927 117.4 25.8C117.4 25.79 117.4 25.79 117.39 25.78L116.99 24.26C116.86 23.72 116.32 23.39 115.78 23.52C115.77 23.52 115.76 23.53 115.75 23.53L114.27 23.91C114.142 23.9395 114.021 23.9939 113.914 24.0702C113.807 24.1465 113.716 24.2431 113.646 24.3545C113.577 24.466 113.53 24.5901 113.508 24.7197C113.486 24.8493 113.49 24.982 113.52 25.11C113.52 25.12 113.53 25.14 113.53 25.15L114.19 27.69C114.31 28.33 114.22 28.98 113.92 29.56L111.28 34C110.99 34.48 110.53 34.48 110.28 34L107.77 29.56C107.48 28.97 107.41 28.3 107.56 27.66L108.26 25.14C108.42 24.61 108.12 24.05 107.59 23.89C107.58 23.89 107.56 23.88 107.55 23.88L106.08 23.48C105.955 23.4409 105.823 23.427 105.692 23.439C105.561 23.4511 105.434 23.4889 105.318 23.5502C105.202 23.6115 105.099 23.6952 105.015 23.7964C104.931 23.8976 104.868 24.0144 104.83 24.14C104.83 24.15 104.82 24.16 104.82 24.18L104.39 25.7C104.25 26.24 103.71 26.56 103.17 26.42C103.16 26.42 103.14 26.41 103.13 26.41L101.61 25.98C101.08 25.82 100.52 26.12 100.36 26.65C100.36 26.66 100.35 26.68 100.35 26.69L99.94 28.16C99.78 28.69 100.08 29.25 100.61 29.41C100.63 29.42 100.64 29.42 100.66 29.42L103.2 30.13C103.82 30.34 104.34 30.75 104.69 31.3L107.19 35.74C107.38 35.97 107.36 36.31 107.13 36.5C107 36.61 106.83 36.65 106.67 36.62H101.58C100.93 36.58 100.32 36.32 99.84 35.88L98 33.89C97.9095 33.7953 97.8012 33.7194 97.6813 33.6666C97.5614 33.6139 97.4322 33.5853 97.3013 33.5825C97.1703 33.5797 97.04 33.6028 96.918 33.6504C96.7959 33.698 96.6845 33.7692 96.59 33.86L96.56 33.89L95.44 35C95.3453 35.0905 95.2694 35.1989 95.2167 35.3188C95.1639 35.4387 95.1353 35.5678 95.1325 35.6988C95.1297 35.8298 95.1528 35.96 95.2004 36.082C95.248 36.2041 95.3193 36.3155 95.41 36.41L95.44 36.44L96.55 37.57C96.95 37.95 96.96 38.59 96.58 38.98L96.55 39.01L95.4 40.08C95.3053 40.1705 95.2294 40.2788 95.1767 40.3988C95.1239 40.5187 95.0953 40.6478 95.0925 40.7788C95.0897 40.9098 95.1128 41.04 95.1604 41.162C95.208 41.2841 95.2793 41.3955 95.37 41.49L95.4 41.52L96.47 42.61C96.85 43.01 97.49 43.02 97.88 42.64L97.91 42.61L99.77 40.76C100.26 40.34 100.87 40.09 101.52 40.06L106.62 40.11C107.18 40.11 107.4 40.51 107.12 40.99L104.53 45.39C104.17 45.94 103.63 46.34 103 46.54L100.46 47.19C99.92 47.32 99.59 47.86 99.72 48.4C99.72 48.41 99.73 48.42 99.73 48.43L100.13 49.9C100.26 50.44 100.8 50.77 101.34 50.64C101.35 50.64 101.36 50.63 101.37 50.63L102.9 50.23C103.43 50.09 103.98 50.41 104.12 50.94C104.12 50.95 104.13 50.96 104.13 50.97L104.53 52.49C104.66 53.03 105.2 53.36 105.74 53.23C105.75 53.23 105.76 53.22 105.77 53.22L107.25 52.84C107.79 52.72 108.13 52.19 108.01 51.65C108.01 51.63 108 51.62 108 51.6L107.34 49.06C107.22 48.43 107.31 47.77 107.61 47.2L110.2 42.8C110.49 42.32 110.95 42.32 111.2 42.8L113.7 47.24C113.99 47.83 114.07 48.5 113.92 49.14L113.22 51.66C113.06 52.19 113.37 52.75 113.9 52.9C113.91 52.9 113.92 52.91 113.93 52.91L115.4 53.31C115.525 53.3491 115.657 53.363 115.788 53.351C115.919 53.3389 116.046 53.3011 116.162 53.2398C116.278 53.1785 116.381 53.0948 116.465 52.9936C116.549 52.8924 116.612 52.7756 116.65 52.65C116.65 52.64 116.66 52.63 116.66 52.61L117.09 51.09C117.23 50.55 117.77 50.23 118.31 50.37C118.32 50.37 118.34 50.38 118.35 50.38L119.87 50.81C120.4 50.97 120.96 50.67 121.12 50.14C121.12 50.13 121.13 50.11 121.13 50.1L121.53 48.64V48.64ZM56.89 116.1C56.8021 115.965 56.6644 115.871 56.5071 115.837C56.3498 115.803 56.1855 115.833 56.05 115.92L54.76 116.78C54.43 116.98 54.04 117.05 53.66 117L50.66 116.4C50.48 116.39 50.34 116.25 50.35 116.07C50.35 115.98 50.4 115.89 50.47 115.83L52.47 113.56C52.74 113.29 53.09 113.11 53.47 113.07L55.02 112.97C55.35 112.95 55.6 112.68 55.58 112.35V111.43C55.5718 111.271 55.5008 111.122 55.3827 111.015C55.2647 110.908 55.1091 110.852 54.95 110.86H54.94L54 110.92C53.841 110.93 53.6844 110.877 53.5645 110.772C53.4446 110.667 53.3711 110.519 53.36 110.36L53.3 109.42C53.289 109.261 53.2155 109.113 53.0956 109.008C52.9756 108.903 52.8191 108.85 52.66 108.86H51.76C51.43 108.88 51.18 109.17 51.2 109.5L51.3 111.05C51.31 111.43 51.18 111.81 50.94 112.11L48.94 114.38C48.85 114.53 48.65 114.58 48.5 114.49C48.459 114.466 48.4241 114.432 48.3981 114.393C48.3721 114.353 48.3556 114.307 48.35 114.26L47.35 111.41C47.25 111.04 47.28 110.65 47.43 110.3L48.12 108.91C48.27 108.61 48.15 108.25 47.86 108.1H47.85L47.03 107.69C46.8861 107.623 46.722 107.614 46.5714 107.664C46.4208 107.714 46.2951 107.82 46.22 107.96L45.81 108.8C45.66 109.1 45.3 109.22 45.01 109.07H45L44.17 108.66C44.0279 108.588 43.8633 108.575 43.7117 108.624C43.5602 108.673 43.4338 108.779 43.36 108.92V108.93L42.95 109.74C42.81 110.04 42.93 110.4 43.23 110.55L44.62 111.24C44.95 111.43 45.21 111.73 45.35 112.09L46.35 114.95C46.46 115.27 46.28 115.47 45.95 115.4L42.95 114.8C42.58 114.7 42.25 114.47 42.02 114.16L41.16 112.87C41.0711 112.739 40.9346 112.648 40.7796 112.616C40.6246 112.584 40.4632 112.615 40.33 112.7L39.58 113.21C39.3 113.39 39.23 113.76 39.41 114.04L39.93 114.83C40.11 115.11 40.04 115.48 39.76 115.67L38.98 116.18C38.8453 116.268 38.7508 116.406 38.7171 116.563C38.6834 116.72 38.7132 116.885 38.8 117.02L39.3 117.78C39.49 118.05 39.86 118.12 40.14 117.94L41.45 117.08C41.78 116.89 42.16 116.81 42.54 116.87L45.54 117.47C45.72 117.47 45.86 117.61 45.86 117.79C45.86 117.89 45.81 117.98 45.74 118.04L43.74 120.31C43.47 120.58 43.12 120.75 42.74 120.8L41.17 120.9C40.84 120.92 40.59 121.21 40.61 121.54V122.44C40.63 122.78 40.92 123.03 41.26 123.01L42.19 122.95C42.52 122.93 42.81 123.18 42.84 123.51L42.9 124.45C42.92 124.78 43.21 125.03 43.54 125.01H44.44C44.77 124.99 45.03 124.71 45.01 124.38V124.37L44.9 122.82C44.9 122.44 45.03 122.06 45.26 121.76L47.26 119.49C47.35 119.34 47.55 119.29 47.7 119.38C47.78 119.43 47.84 119.51 47.85 119.61L48.85 122.48C48.95 122.85 48.92 123.24 48.77 123.59L48.08 125C47.93 125.3 48.05 125.66 48.34 125.81H48.35L49.16 126.2C49.46 126.34 49.81 126.22 49.97 125.93L50.38 125.09C50.53 124.79 50.89 124.67 51.18 124.82H51.19L52.03 125.23C52.32 125.38 52.68 125.26 52.82 124.97C52.82 124.97 52.82 124.96 52.83 124.96L53.24 124.15C53.39 123.85 53.27 123.49 52.98 123.34H52.97L51.58 122.65C51.25 122.46 50.99 122.16 50.85 121.81L49.85 118.94C49.75 118.63 49.93 118.42 50.25 118.49L53.25 119.09C53.63 119.18 53.96 119.41 54.18 119.73L55 121C55.18 121.28 55.56 121.36 55.84 121.18L56.59 120.67C56.86 120.49 56.95 120.13 56.77 119.86C56.77 119.85 56.76 119.85 56.76 119.84L56.24 119.06C56.1548 118.925 56.1249 118.762 56.1565 118.606C56.1882 118.449 56.279 118.311 56.41 118.22L57.19 117.7C57.47 117.52 57.54 117.15 57.36 116.87L56.89 116.1V116.1Z" fill="#B7E4FF"/>
<path d="M44 45.94C39.81 45.94 36 49.48 36 55.36C36 61.24 39.81 64.77 44 64.77C48.2 64.77 52 61.23 52 55.36C52 49.49 48.24 45.94 44 45.94Z" fill="#422B0D"/>
<path d="M43.65 49.87C42.9652 49.5443 42.1795 49.5023 41.464 49.7533C40.7485 50.0043 40.1612 50.5279 39.83 51.21C39.3 52.32 39.54 53.65 40.43 54.51C41.85 55.19 43.56 54.59 44.25 53.17C44.78 52.06 44.54 50.73 43.65 49.87Z" fill="#896024"/>
<path d="M82.4 45.94C78.21 45.94 74.4 49.48 74.4 55.36C74.4 61.24 78.21 64.77 82.4 64.77C86.59 64.77 90.4 61.23 90.4 55.36C90.4 49.49 86.59 45.94 82.4 45.94Z" fill="#422B0D"/>
<path d="M81.9999 49.87C81.3152 49.5443 80.5295 49.5023 79.814 49.7533C79.0985 50.0043 78.5111 50.5279 78.1799 51.21C77.6499 52.32 77.8899 53.65 78.7799 54.51C80.1999 55.19 81.9099 54.59 82.5999 53.17C83.1299 52.06 82.8899 50.73 81.9999 49.87Z" fill="#896024"/>
<path d="M39.3701 74.1H89.4601C95.7801 74.1 100.9 79.22 100.9 85.54V85.55C100.9 91.87 95.7801 96.99 89.4601 96.99H39.3701C33.0501 96.99 27.9301 91.87 27.9301 85.55V85.54C27.9301 79.22 33.0501 74.1 39.3701 74.1Z" fill="white"/>
<path d="M100.74 83.67H28.1C27.85 84.9916 27.85 86.3484 28.1 87.67H100.7C100.95 86.35 100.95 84.99 100.7 83.67H100.74Z" fill="#B3B3B3"/>
<path d="M89.46 74.1H88.91V97H89.46C90.35 97 91.24 96.89 92.11 96.68V74.42C91.24 74.21 90.35 74.1 89.46 74.1V74.1ZM62.58 74.1H65.78V96.99H62.58V74.1ZM39.38 74.1C38.32 74.1 37.26 74.25 36.24 74.55V96.55C37.26 96.85 38.32 97 39.38 97H39.44V74.1H39.38ZM49.41 74.1H52.61V96.99H49.41V74.1ZM75.74 74.1H78.94V96.99H75.74V74.1Z" fill="#B3B3B3"/>
<path d="M100.91 85.55C100.62 82.03 98.72 78.85 95.78 76.9C94.39 75.98 92.8 75.41 91.14 75.23C89.4045 75.14 87.6655 75.14 85.93 75.23C82.34 75.37 78.76 75.4 75.18 75.48L64.42 75.56L53.67 75.48C50.08 75.4 46.5 75.37 42.91 75.23C41.1745 75.14 39.4355 75.14 37.7 75.23C36.04 75.4 34.45 75.98 33.07 76.91C31.6148 77.8669 30.3961 79.1418 29.5056 80.6385C28.6152 82.1352 28.0765 83.8146 27.93 85.55C27.64 81.77 29.24 78.09 32.2 75.72C33.71 74.5 35.49 73.67 37.39 73.29L38.11 73.15L38.84 73.09C39.34 73.09 39.78 73.03 40.23 73.02L42.91 72.93C46.5 72.79 50.08 72.76 53.67 72.68L64.42 72.6L75.18 72.69C78.76 72.77 82.34 72.8 85.93 72.94L88.62 73.02C89.07 73.02 89.5 73.02 90.01 73.09L90.73 73.16L91.45 73.3C93.35 73.67 95.13 74.5 96.64 75.72C99.6 78.09 101.2 81.77 100.91 85.55V85.55Z" fill="#018CE3"/>
<defs>
<radialGradient id="paint0_radial_116_32" cx="0" cy="0" r="1" gradientUnits="userSpaceOnUse" gradientTransform="translate(63.6 62.9) scale(56.96 56.96)">
<stop offset="0.5" stop-color="#FDE030"/>
<stop offset="0.92" stop-color="#F7C02B"/>
<stop offset="1" stop-color="#F4A223"/>
</radialGradient>
<radialGradient id="paint1_radial_116_32" cx="0" cy="0" r="1" gradientUnits="userSpaceOnUse" gradientTransform="translate(63.6 62.9) scale(56.96 56.96)">
<stop offset="0.16" stop-color="#40E3E7"/>
<stop offset="0.51" stop-color="#3FE1E7"/>
<stop offset="0.65" stop-color="#39DAE7"/>
<stop offset="0.77" stop-color="#30CDE6"/>
<stop offset="0.86" stop-color="#23BCE5"/>
<stop offset="0.94" stop-color="#13A5E4"/>
<stop offset="1" stop-color="#018CE3"/>
</radialGradient>
<linearGradient id="paint2_linear_116_32" x1="38.099" y1="7.26101" x2="44.599" y2="23.511" gradientUnits="userSpaceOnUse">
<stop stop-color="white"/>
<stop offset="0.21" stop-color="#F6FCFF"/>
<stop offset="0.56" stop-color="#DEF3FF"/>
<stop offset="1" stop-color="#B7E4FF"/>
</linearGradient>
</defs>
</svg>
