<svg width="128" height="128" viewBox="0 0 128 128" fill="none" xmlns="http://www.w3.org/2000/svg">
<path d="M116.62 124.26H11.32C7.17005 124.26 3.80005 120.89 3.80005 116.74V11.44C3.80005 7.29 7.17005 3.92 11.32 3.92H116.62C120.77 3.92 124.14 7.29 124.14 11.44V116.74C124.15 120.89 120.78 124.26 116.62 124.26V124.26Z" fill="#AED0D7"/>
<path d="M116.62 124.26H11.32C7.17005 124.26 3.80005 120.89 3.80005 116.74V11.44C3.80005 7.29 7.17005 3.92 11.32 3.92H116.62C120.77 3.92 124.14 7.29 124.14 11.44V116.74C124.15 120.89 120.78 124.26 116.62 124.26V124.26Z" fill="#AED0D7"/>
<path d="M3.82 46.32L3.75 69.45L124.15 62.14L124.31 20.24C124.31 20.24 118.72 15.74 110.03 18.38C101.34 21.02 99.63 26.29 99.63 26.29C99.63 26.29 90.98 23.45 81.94 27.38C70.14 32.5 65.48 43.51 65.48 43.51C65.48 43.51 53.69 39.47 40.34 39.63C21.45 39.87 3.82 46.32 3.82 46.32V46.32Z" fill="url(#paint0_radial_116_69)"/>
<path d="M42.23 59.4C42.23 59.4 50.26 55.62 61.2 55.17C68.2 54.88 76.52 57.5 76.52 57.5C76.52 57.5 83.38 53.71 100.89 54.87C118.4 56.04 124.15 59.7 124.15 59.7L124.16 98.94L3.78003 95.6L3.80003 59.1C3.80003 59.1 13.79 56.92 26.48 57.35C36.39 57.7 42.23 59.4 42.23 59.4V59.4Z" fill="url(#paint1_radial_116_69)"/>
<path d="M124.17 61.85C123.9 61.72 117.54 58.72 113.24 55.91C109.42 53.42 101.51 47.24 91.78 38.02C83.86 30.51 77.26 19.45 76.98 18.98L79.04 17.76C79.11 17.87 85.76 29.01 93.43 36.28C103.04 45.39 110.81 51.46 114.55 53.9C118.71 56.61 124.08 59.1 124.14 59.13L124.17 61.85V61.85Z" fill="#B11F2B"/>
<path d="M106.02 99.6L104.02 99.58L104.3 48.39L106.3 48.41L106.02 99.6ZM111.643 90.544L111.745 38.274L113.745 38.278L113.643 90.548L111.643 90.544ZM119.176 78.98L119.276 58.62L121.276 58.63L121.176 78.99L119.176 78.98ZM32.262 92.536L32.63 74.589L34.63 74.63L34.262 92.577L32.262 92.536ZM21.384 91.7L21.944 64.366L23.944 64.407L23.384 91.742L21.384 91.7ZM43.65 98.34L41.65 98.32L42.02 53.41L44.02 53.43L43.65 98.34ZM53.78 104.01L51.78 103.99L51.96 64.38L53.96 64.4L53.78 104.01ZM61.01 37.55H63.01V107.14H61.01V37.55ZM69.062 51.503H71.062V101.373H69.062V51.503Z" fill="#B11F2B"/>
<path d="M124.18 48.83C124.12 48.79 117.5 43.89 111.49 38.71C107.45 35.23 102.82 30.47 100.23 27.51C95.92 22.59 93.35 18.83 93.24 18.67L95.23 17.32C95.26 17.36 97.83 21.13 102.04 25.93C104.58 28.82 109.11 33.49 113.06 36.89C119 42 124.14 45.76 124.2 45.8L124.18 48.83Z" fill="#FF2D26"/>
<path d="M78.4299 17.02C78.4299 17.02 83.1299 16.89 83.1599 16.98C83.2799 17.41 83.3399 95.5 83.3399 95.5L75.4299 98.71L78.4299 17.02V17.02ZM93.4099 17.13C93.4099 17.13 97.5399 17.06 97.6199 17.13C98.0399 17.45 97.8999 42.35 97.8999 42.35H98.7299V97.89L93.8199 92.7L93.4099 17.13V17.13Z" fill="#B01522"/>
<path d="M95.8601 42.53H94.4701L94.4301 17.12L90.2001 17.06L90.1801 19.84C90.1801 19.84 88.6001 21.43 85.1701 21.53C81.7401 21.62 80.3501 19.4 80.3501 19.4L80.3201 17L75.1601 17.04L75.1001 42.53L74.1201 42.59L74.1701 49.86V92.7L74.2601 109.38L80.6601 104.47L80.5701 70.73L89.6601 70.64V101.8L95.8701 102.08V42.53H95.8601ZM80.2901 29C80.4801 28.63 90.0301 28.91 90.0301 28.91L89.9401 42.54H80.3001V29H80.2901ZM89.9301 63.21H80.2901V49.86H89.9301V63.21Z" fill="#FF2D26"/>
<path d="M94.9999 17.09C94.9999 17.09 95.3199 13.86 93.3499 13.89C91.5199 13.91 91.8999 17.13 91.8999 17.13C91.8999 17.13 92.6799 17.15 93.5599 17.13C94.5599 17.11 94.9999 17.09 94.9999 17.09V17.09ZM79.4799 13.84C77.6999 13.86 77.9899 17.06 77.9899 17.06C77.9899 17.06 78.7999 17.04 79.5699 17.04C80.3299 17.04 81.0599 17 81.0599 17C81.0599 17 81.3799 13.82 79.4799 13.84Z" fill="#DD0C29"/>
<path d="M3.78003 84.4L3.81003 81.87C3.87003 81.86 12.63 80.42 15.31 79.53C15.62 79.43 16.15 79.28 16.86 79.07C22.65 77.42 40.27 72.4 59.91 58.76C81.54 43.74 90.98 18.59 91.08 18.34L93.33 19.17C93.24 19.43 83.55 45.27 61.28 60.74C41.31 74.6 23.4 79.7 17.51 81.37C16.84 81.56 16.36 81.7 16.06 81.8C13.23 82.75 4.03003 84.35 3.78003 84.4V84.4Z" fill="#FF2D26"/>
<path d="M3.76001 70.86V68.51C3.93001 68.51 19.46 68.34 42.88 51.79C51.55 45.67 63.47 35.04 68.4 29.05C74.04 22.19 74.29 20.52 75.04 18.78C75.04 18.78 75.35 17.23 76.21 17.04C76.42 16.99 77.92 17.01 77.92 17.01C77.76 17.56 76.12 23.44 70.26 30.57C65.23 36.69 53.08 47.53 44.28 53.75C20.16 70.79 4.49001 70.86 3.76001 70.86Z" fill="#B11F2B"/>
<path d="M116.62 124.26H11.32C7.17005 124.26 3.80005 120.89 3.80005 116.74V11.44C3.80005 7.29 7.17005 3.92 11.32 3.92H116.62C120.77 3.92 124.14 7.29 124.14 11.44V116.74C124.15 120.89 120.78 124.26 116.62 124.26V124.26Z" fill="url(#paint2_radial_116_69)"/>
<path d="M99.52 124.26H11.32C7.17001 124.26 3.80001 120.89 3.80001 116.74L3.76001 76.33C3.76001 76.33 9.98001 72.56 20.44 75.5C30.9 78.43 36.95 87.6 36.95 87.6C36.95 87.6 43.98 81.63 55.66 84.48C70.71 88.15 79.15 106.68 79.15 106.68L99.52 124.26Z" fill="url(#paint3_radial_116_69)"/>
<path d="M124.15 73.21V116.74C124.15 120.89 120.78 124.26 116.63 124.26H33.1299C33.1299 124.26 37.2599 107.73 53.4099 97.97C67.5799 89.4 77.6799 92.55 77.6799 92.55C77.6799 92.55 87.1099 76.53 101.72 72.52C116.33 68.51 124.15 73.21 124.15 73.21Z" fill="url(#paint4_radial_116_69)"/>
<defs>
<radialGradient id="paint0_radial_116_69" cx="0" cy="0" r="1" gradientUnits="userSpaceOnUse" gradientTransform="translate(77.8439 113.18) rotate(-92) scale(101.846 194.143)">
<stop offset="0.553" stop-color="#92BDCC"/>
<stop offset="0.622" stop-color="#B9D5DE"/>
<stop offset="0.732" stop-color="white"/>
</radialGradient>
<radialGradient id="paint1_radial_116_69" cx="0" cy="0" r="1" gradientUnits="userSpaceOnUse" gradientTransform="translate(66.4737 139.567) rotate(-83.6965) scale(86.399 165.852)">
<stop offset="0.593" stop-color="#A1C3CE"/>
<stop offset="0.61" stop-color="#A8C8D2"/>
<stop offset="0.708" stop-color="#CEE0E5"/>
<stop offset="0.799" stop-color="#E9F1F3"/>
<stop offset="0.879" stop-color="#F9FBFC"/>
<stop offset="0.94" stop-color="white"/>
</radialGradient>
<radialGradient id="paint2_radial_116_69" cx="0" cy="0" r="1" gradientUnits="userSpaceOnUse" gradientTransform="translate(68.7848 149.25) rotate(-90.4389) scale(135.894 282.021)">
<stop offset="0.131" stop-color="white"/>
<stop offset="0.848" stop-color="white" stop-opacity="0"/>
</radialGradient>
<radialGradient id="paint3_radial_116_69" cx="0" cy="0" r="1" gradientUnits="userSpaceOnUse" gradientTransform="translate(17.715 130.793) rotate(-80.5612) scale(81.6382 111.513)">
<stop offset="0.158" stop-color="#C0D0D5"/>
<stop offset="0.578" stop-color="#FAFBFB"/>
<stop offset="1" stop-color="#FAFBFB" stop-opacity="0"/>
</radialGradient>
<radialGradient id="paint4_radial_116_69" cx="0" cy="0" r="1" gradientUnits="userSpaceOnUse" gradientTransform="translate(70.5529 51.231) scale(79.852)">
<stop offset="0.052" stop-color="#FAFBFB" stop-opacity="0"/>
<stop offset="0.571" stop-color="#FAFBFB"/>
<stop offset="0.718" stop-color="#EEF2F3"/>
<stop offset="0.919" stop-color="#D6E1E3"/>
</radialGradient>
</defs>
</svg>
