<svg width="32" height="32" viewBox="0 0 32 32" fill="none" xmlns="http://www.w3.org/2000/svg">
<path d="M13.0709 3.785C14.1409 1.445 17.4409 1.395 18.5909 3.695C19.0209 4.555 20.0809 4.885 20.9209 4.415L21.4409 4.125C23.4809 2.965 25.9309 4.695 25.5409 6.995L25.4409 7.585C25.2809 8.535 25.9509 9.425 26.9109 9.535L27.5009 9.605C29.8209 9.875 30.7909 12.705 29.1209 14.335L28.6909 14.755C28.0009 15.425 28.0209 16.545 28.7309 17.195L29.1709 17.595C30.8909 19.175 30.0109 22.035 27.7009 22.375L27.1109 22.465C26.1609 22.605 25.5209 23.515 25.7109 24.465L25.8309 25.055C26.2909 27.345 23.9009 29.145 21.8309 28.055L21.3009 27.775C20.4509 27.325 19.3909 27.685 18.9909 28.565C17.9209 30.905 14.6209 30.955 13.4709 28.655C13.3693 28.4509 13.2273 28.2696 13.0536 28.1219C12.8798 27.9743 12.6779 27.8635 12.4601 27.7962C12.2422 27.7289 12.013 27.7065 11.7863 27.7303C11.5595 27.7542 11.34 27.8238 11.1409 27.935L10.6209 28.225C8.59094 29.375 6.14094 27.645 6.53094 25.345L6.63094 24.755C6.79094 23.805 6.12094 22.915 5.16094 22.805L4.57094 22.735C2.25094 22.465 1.28094 19.635 2.95094 18.005L3.38094 17.585C4.07094 16.915 4.05094 15.795 3.34094 15.145L2.90094 14.745C1.18094 13.165 2.06094 10.305 4.37094 9.965L4.96094 9.875C5.91094 9.735 6.55094 8.825 6.36094 7.875L6.24094 7.295C5.78094 5.005 8.17094 3.205 10.2409 4.295L10.7709 4.575C11.6209 5.015 12.6709 4.655 13.0709 3.785V3.785Z" fill="#FF822D"/>
<path d="M15.991 27.165C22.067 27.165 26.991 22.241 26.991 16.165C26.991 10.09 22.067 5.16499 15.991 5.16499C9.91597 5.16499 4.99097 10.09 4.99097 16.165C4.99097 22.241 9.91597 27.165 15.991 27.165Z" fill="#FCD53F"/>
<path d="M10.6609 9.205C10.0033 9.20527 9.37261 9.46664 8.90758 9.93167C8.44254 10.3967 8.18117 11.0273 8.18091 11.685C8.18091 11.8176 8.12823 11.9448 8.03446 12.0386C7.94069 12.1323 7.81352 12.185 7.68091 12.185C7.5483 12.185 7.42112 12.1323 7.32735 12.0386C7.23359 11.9448 7.18091 11.8176 7.18091 11.685C7.18117 10.7621 7.5479 9.87713 8.20047 9.22456C8.85304 8.57199 9.73804 8.20527 10.6609 8.205C10.7935 8.205 10.9207 8.25768 11.0145 8.35145C11.1082 8.44522 11.1609 8.57239 11.1609 8.705C11.1609 8.83761 11.1082 8.96479 11.0145 9.05856C10.9207 9.15232 10.7935 9.205 10.6609 9.205ZM10.9009 17.745C11.0415 17.6046 11.2322 17.5257 11.4309 17.5257C11.6297 17.5257 11.8203 17.6046 11.9609 17.745C12.4736 18.2581 13.0823 18.6652 13.7523 18.9429C14.4224 19.2206 15.1406 19.3635 15.8659 19.3635C16.5912 19.3635 17.3094 19.2206 17.9795 18.9429C18.6495 18.6652 19.2583 18.2581 19.7709 17.745C19.9131 17.6125 20.1011 17.5404 20.2954 17.5438C20.4897 17.5473 20.6751 17.626 20.8125 17.7634C20.9499 17.9008 21.0287 18.0862 21.0321 18.2805C21.0355 18.4748 20.9634 18.6628 20.8309 18.805C20.1789 19.4571 19.4049 19.9743 18.553 20.3273C17.7011 20.6802 16.788 20.8618 15.8659 20.8618C14.9438 20.8618 14.0307 20.6802 13.1788 20.3273C12.3269 19.9743 11.5529 19.4571 10.9009 18.805C10.7605 18.6644 10.6816 18.4738 10.6816 18.275C10.6816 18.0763 10.7605 17.8856 10.9009 17.745ZM21.0409 8.205C20.9083 8.205 20.7811 8.25768 20.6874 8.35145C20.5936 8.44522 20.5409 8.57239 20.5409 8.705C20.5409 8.83761 20.5936 8.96479 20.6874 9.05856C20.7811 9.15232 20.9083 9.205 21.0409 9.205C21.6986 9.20527 22.3292 9.46664 22.7942 9.93167C23.2593 10.3967 23.5206 11.0273 23.5209 11.685C23.5209 11.8176 23.5736 11.9448 23.6674 12.0386C23.7611 12.1323 23.8883 12.185 24.0209 12.185C24.1535 12.185 24.2807 12.1323 24.3745 12.0386C24.4682 11.9448 24.5209 11.8176 24.5209 11.685C24.5206 10.7621 24.1539 9.87713 23.5013 9.22456C22.8488 8.57199 21.9638 8.20527 21.0409 8.205ZM11.5809 12.685C11.3051 12.6832 11.0351 12.7647 10.8064 12.9189C10.5777 13.0731 10.4008 13.2927 10.2989 13.549C10.2643 13.6425 10.2114 13.7283 10.1433 13.8011C10.0751 13.8739 9.99316 13.9325 9.90214 13.9733C9.81112 14.014 9.71288 14.0362 9.61317 14.0386C9.51346 14.041 9.41428 14.0234 9.32143 13.9869C9.22859 13.9505 9.14395 13.8959 9.07247 13.8263C9.00098 13.7568 8.94409 13.6737 8.90511 13.5819C8.86614 13.4901 8.84587 13.3914 8.84549 13.2917C8.84511 13.1919 8.86463 13.0931 8.90291 13.001C9.11478 12.464 9.4837 12.0034 9.96148 11.6795C10.4392 11.3555 11.0036 11.1831 11.5809 11.185C12.8539 11.185 13.9349 12.011 14.3139 13.161C14.3761 13.35 14.3607 13.5559 14.271 13.7335C14.1814 13.9111 14.0249 14.0458 13.8359 14.108C13.6469 14.1702 13.441 14.1548 13.2634 14.0651C13.0858 13.9755 12.9511 13.819 12.8889 13.63C12.7079 13.08 12.1889 12.685 11.5809 12.685V12.685ZM18.9189 13.549C19.0207 13.2926 19.1975 13.0729 19.4263 12.9187C19.655 12.7645 19.925 12.6831 20.2009 12.685C20.8089 12.685 21.3279 13.079 21.5089 13.63C21.5712 13.819 21.7061 13.9754 21.8838 14.065C22.0615 14.1545 22.2674 14.1698 22.4564 14.1075C22.6454 14.0452 22.8018 13.9103 22.8914 13.7326C22.9809 13.555 22.9962 13.349 22.9339 13.16C22.7441 12.5851 22.3778 12.0848 21.8871 11.7302C21.3964 11.3755 20.8063 11.1848 20.2009 11.185C19.6236 11.1831 19.0593 11.3555 18.5815 11.6795C18.1037 12.0034 17.7348 12.464 17.5229 13.001C17.4846 13.0931 17.4651 13.1919 17.4655 13.2917C17.4659 13.3914 17.4861 13.4901 17.5251 13.5819C17.5641 13.6737 17.621 13.7568 17.6925 13.8263C17.764 13.8959 17.8486 13.9505 17.9414 13.9869C18.0343 14.0234 18.1335 14.041 18.2332 14.0386C18.3329 14.0362 18.4311 14.014 18.5221 13.9733C18.6132 13.9325 18.6951 13.8739 18.7633 13.8011C18.8314 13.7283 18.8843 13.6425 18.9189 13.549Z" fill="#321B41"/>
</svg>
