<svg width="36" height="36" viewBox="0 0 36 36" fill="none" xmlns="http://www.w3.org/2000/svg">
<path d="M9 28.5C9 28.1022 9.15804 27.7206 9.43934 27.4393C9.72064 27.158 10.1022 27 10.5 27C10.8978 27 11.2794 27.158 11.5607 27.4393C11.842 27.7206 12 28.1022 12 28.5V29C12 29 12 32 15 32C18 32 18 29 18 29V3.5C18 3.10218 18.158 2.72064 18.4393 2.43934C18.7206 2.15804 19.1022 2 19.5 2C19.8978 2 20.2794 2.15804 20.5607 2.43934C20.842 2.72064 21 3.10218 21 3.5V29C21 29 21 35 15 35C9 35 9 29 9 29V28.5Z" fill="#66757F"/>
<path d="M19.5 4C28.612 4 36 9.82 36 17C36 17 36 19 35 19C34 19 32 17 32 17H7C7 17 5 19 4 19C3 19 3 17 3 17C3 9.82 10.387 4 19.5 4Z" fill="#744EAA"/>
<path d="M19.5 4C26.403 4 32 9.82 32 17C32 17 32 19 30 19C28 19 25 17 25 17H14C14 17 11 19 9 19C7 19 7 17 7 17C7 9.82 12.596 4 19.5 4Z" fill="#9266CC"/>
<path d="M19.5 4C23.09 4 25 9.82 25 17C25 17 22 19 20 19H19C17 19 14 17 14 17C14 9.82 15.91 4 19.5 4Z" fill="#744EAA"/>
<path d="M30.383 4.472C30.1782 4.80775 30.0422 5.18093 29.983 5.56978C29.9238 5.95862 29.9426 6.35536 30.0383 6.73687C30.1339 7.11838 30.3046 7.47704 30.5403 7.79193C30.776 8.10682 31.072 8.37166 31.411 8.571C32.842 9.423 34.702 8.969 35.565 7.557C35.8524 7.08768 36.0028 6.54731 35.9991 5.997C35.9954 5.44669 35.8378 4.90839 35.544 4.443L33.061 0.0899963L30.383 4.472V4.472ZM22.382 7.472C22.1772 7.80775 22.0412 8.18093 21.982 8.56978C21.9228 8.95862 21.9416 9.35536 22.0373 9.73687C22.1329 10.1184 22.3036 10.477 22.5393 10.7919C22.775 11.1068 23.071 11.3717 23.41 11.571C24.841 12.423 26.701 11.969 27.564 10.557C27.8514 10.0877 28.0018 9.54731 27.9981 8.997C27.9944 8.44669 27.8368 7.90839 27.543 7.443L25.061 3.09L22.382 7.472V7.472ZM10.435 4.472C10.2302 4.80775 10.0942 5.18093 10.035 5.56978C9.97578 5.95862 9.99458 6.35536 10.0903 6.73687C10.1859 7.11838 10.3566 7.47704 10.5923 7.79193C10.828 8.10682 11.124 8.37166 11.463 8.571C12.894 9.423 14.754 8.969 15.617 7.557C15.9049 7.08779 16.0554 6.54729 16.0515 5.99685C16.0476 5.44641 15.8895 4.90809 15.595 4.443L13.114 0.0899963L10.435 4.472V4.472ZM0.435043 10.382C0.230171 10.7178 0.0941748 11.0909 0.0349799 11.4798C-0.024215 11.8686 -0.00542478 12.2654 0.0902556 12.6469C0.185936 13.0284 0.356593 13.387 0.59228 13.7019C0.827968 14.0168 1.12397 14.2817 1.46304 14.481C2.89404 15.332 4.75404 14.879 5.61704 13.467C5.90486 12.9978 6.05537 12.4573 6.05148 11.9068C6.04759 11.3564 5.88946 10.8181 5.59504 10.353L3.11404 6L0.435043 10.382V10.382Z" fill="#5DADEC"/>
</svg>
