<svg width="22" height="14" viewBox="0 0 22 14" fill="none" xmlns="http://www.w3.org/2000/svg">
<path d="M18.47 5.54C17.9961 4.48575 17.2277 3.59082 16.2574 2.96282C15.287 2.33482 14.1559 2.00048 13 2C12.5311 2.00378 12.0644 2.06422 11.61 2.18C11.0408 1.37654 10.247 0.759031 9.32826 0.404915C8.40949 0.0507981 7.40662 -0.0241606 6.44542 0.18944C5.48422 0.40304 4.60748 0.89569 3.92516 1.6056C3.24285 2.31552 2.78533 3.21109 2.60999 4.18C1.95572 4.41554 1.4036 4.87104 1.04803 5.46863C0.69246 6.06622 0.555525 6.76876 0.660639 7.45614C0.765754 8.14352 1.10639 8.77304 1.6243 9.23705C2.14221 9.70106 2.80523 9.97075 3.49999 10H4.49999C4.48956 10.1665 4.48956 10.3335 4.49999 10.5C4.49999 11.4283 4.86874 12.3185 5.52511 12.9749C6.18149 13.6312 7.07173 14 7.99999 14H17.17C18.2043 13.9998 19.2043 13.6294 19.9892 12.9558C20.7741 12.2822 21.2919 11.3499 21.449 10.3276C21.6061 9.30536 21.392 8.26061 20.8456 7.38244C20.2992 6.50427 19.4565 5.85071 18.47 5.54ZM3.49999 8C3.23477 8 2.98042 7.89464 2.79288 7.7071C2.60534 7.51957 2.49999 7.26521 2.49999 7C2.49999 6.73478 2.60534 6.48043 2.79288 6.29289C2.98042 6.10535 3.23477 6 3.49999 6C3.7652 6 4.01956 5.89464 4.20709 5.7071C4.39463 5.51957 4.49999 5.26521 4.49999 5C4.49999 4.20435 4.81606 3.44129 5.37867 2.87868C5.94128 2.31607 6.70434 2 7.49999 2C7.91937 2.00225 8.33361 2.09241 8.716 2.26465C9.09838 2.4369 9.4404 2.6874 9.71999 3C9.01031 3.46175 8.40639 4.06848 7.94794 4.78029C7.48948 5.4921 7.18687 6.29288 7.05999 7.13C6.49476 7.28919 5.97883 7.58842 5.55999 8H3.49999ZM17.17 12H7.99999C7.60216 12 7.22063 11.842 6.93933 11.5607C6.65802 11.2794 6.49999 10.8978 6.49999 10.5C6.49999 10.1022 6.65802 9.72064 6.93933 9.43934C7.22063 9.15803 7.60216 9 7.99999 9C8.2652 9 8.51956 8.89464 8.70709 8.7071C8.89463 8.51957 8.99999 8.26521 8.99999 8C9.00427 7.05569 9.34251 6.14335 9.95482 5.42447C10.5671 4.70558 11.414 4.2265 12.3456 4.07204C13.2772 3.91757 14.2334 4.09767 15.045 4.58047C15.8566 5.06326 16.4712 5.81761 16.78 6.71C16.8371 6.88184 16.9399 7.03493 17.0773 7.15293C17.2146 7.27093 17.3815 7.34941 17.56 7.38C18.1276 7.48612 18.6356 7.79922 18.9854 8.25861C19.3353 8.71799 19.5021 9.29091 19.4535 9.8663C19.4049 10.4417 19.1444 10.9785 18.7225 11.3728C18.3006 11.767 17.7473 11.9905 17.17 12V12Z" fill="black"/>
</svg>
