<svg width="22" height="20" viewBox="0 0 22 20" fill="none" xmlns="http://www.w3.org/2000/svg">
<path d="M11 4C10.7167 4 10.4793 3.904 10.288 3.712C10.096 3.52067 10 3.28333 10 3V1C10 0.716667 10.096 0.479 10.288 0.287C10.4793 0.0956666 10.7167 0 11 0C11.2833 0 11.521 0.0956666 11.713 0.287C11.9043 0.479 12 0.716667 12 1V3C12 3.28333 11.9043 3.52067 11.713 3.712C11.521 3.904 11.2833 4 11 4ZM15.95 6.05C15.7667 5.86667 15.675 5.63333 15.675 5.35C15.675 5.06667 15.7667 4.83333 15.95 4.65L17.35 3.225C17.55 3.025 17.7873 2.925 18.062 2.925C18.3373 2.925 18.575 3.025 18.775 3.225C18.9583 3.40833 19.05 3.64167 19.05 3.925C19.05 4.20833 18.9583 4.44167 18.775 4.625L17.35 6.05C17.1667 6.23333 16.9333 6.325 16.65 6.325C16.3667 6.325 16.1333 6.23333 15.95 6.05V6.05ZM19 12C18.7167 12 18.4793 11.904 18.288 11.712C18.096 11.5207 18 11.2833 18 11C18 10.7167 18.096 10.479 18.288 10.287C18.4793 10.0957 18.7167 10 19 10H21C21.2833 10 21.5207 10.0957 21.712 10.287C21.904 10.479 22 10.7167 22 11C22 11.2833 21.904 11.5207 21.712 11.712C21.5207 11.904 21.2833 12 21 12H19ZM17.35 18.775L15.95 17.35C15.7667 17.1667 15.675 16.9333 15.675 16.65C15.675 16.3667 15.7667 16.1333 15.95 15.95C16.1333 15.7667 16.3667 15.675 16.65 15.675C16.9333 15.675 17.1667 15.7667 17.35 15.95L18.775 17.35C18.975 17.55 19.075 17.7873 19.075 18.062C19.075 18.3373 18.975 18.575 18.775 18.775C18.575 18.975 18.3373 19.075 18.062 19.075C17.7873 19.075 17.55 18.975 17.35 18.775ZM4.65 6.05L3.225 4.625C3.04167 4.44167 2.95 4.20833 2.95 3.925C2.95 3.64167 3.04167 3.40833 3.225 3.225C3.425 3.025 3.66267 2.925 3.938 2.925C4.21267 2.925 4.45 3.025 4.65 3.225L6.05 4.65C6.23333 4.83333 6.325 5.06667 6.325 5.35C6.325 5.63333 6.23333 5.86667 6.05 6.05C5.86667 6.23333 5.63333 6.325 5.35 6.325C5.06667 6.325 4.83333 6.23333 4.65 6.05V6.05ZM5 18H9.5C9.91667 18 10.2707 17.854 10.562 17.562C10.854 17.2707 11 16.9167 11 16.5C11 16.0833 10.8583 15.7293 10.575 15.438C10.2917 15.146 9.94167 15 9.525 15H8.25L7.75 13.8C7.51667 13.25 7.15 12.8127 6.65 12.488C6.15 12.1627 5.6 12 5 12C4.16667 12 3.45833 12.2917 2.875 12.875C2.29167 13.4583 2 14.1667 2 15C2 15.8333 2.29167 16.5417 2.875 17.125C3.45833 17.7083 4.16667 18 5 18ZM5 20C3.61667 20 2.43767 19.5127 1.463 18.538C0.487667 17.5627 0 16.3833 0 15C0 13.6167 0.487667 12.4373 1.463 11.462C2.43767 10.4873 3.61667 10 5 10C6 10 6.91267 10.2707 7.738 10.812C8.56267 11.354 9.175 12.0833 9.575 13C10.5417 13 11.354 13.3583 12.012 14.075C12.6707 14.7917 13 15.65 13 16.65C12.9667 17.6 12.6127 18.396 11.938 19.038C11.2627 19.6793 10.45 20 9.5 20H5ZM13 16.65C12.9167 16.3167 12.8333 15.9917 12.75 15.675C12.6667 15.3583 12.5833 15.0333 12.5 14.7C13.25 14.3833 13.854 13.8917 14.312 13.225C14.7707 12.5583 15 11.8167 15 11C15 9.9 14.6083 8.95833 13.825 8.175C13.0417 7.39167 12.1 7 11 7C10 7 9.125 7.325 8.375 7.975C7.625 8.625 7.18333 9.45 7.05 10.45C6.71667 10.3667 6.375 10.2917 6.025 10.225C5.675 10.1583 5.33333 10.0833 5 10C5.23333 8.53333 5.92067 7.33333 7.062 6.4C8.204 5.46667 9.51667 5 11 5C12.6667 5 14.0833 5.58333 15.25 6.75C16.4167 7.91667 17 9.33333 17 11C17 12.2833 16.6333 13.4373 15.9 14.462C15.1667 15.4873 14.2 16.2167 13 16.65Z" fill="black"/>
</svg>
