<svg width="16" height="20" viewBox="0 0 16 20" fill="none" xmlns="http://www.w3.org/2000/svg">
<path d="M8 19.5C5.78333 19.5 3.896 18.7293 2.338 17.188C0.779333 15.646 0 13.7833 0 11.6C0 10.5 0.204333 9.479 0.613 8.537C1.021 7.59567 1.6 6.76667 2.35 6.05L8 0.5L13.65 6.05C14.4 6.76667 14.9793 7.59567 15.388 8.537C15.796 9.479 16 10.5 16 11.6C16 13.7833 15.221 15.646 13.663 17.188C12.1043 18.7293 10.2167 19.5 8 19.5ZM8 17.5C9.66667 17.5 11.0833 16.9207 12.25 15.762C13.4167 14.604 14 13.2167 14 11.6C14 10.8 13.854 10.054 13.562 9.362C13.2707 8.67067 12.8333 8.05 12.25 7.5L8 3.3L3.75 7.5C3.16667 8.05 2.72933 8.67067 2.438 9.362C2.146 10.054 2 10.8 2 11.6C2 13.2167 2.58333 14.604 3.75 15.762C4.91667 16.9207 6.33333 17.5 8 17.5Z" fill="black"/>
</svg>
