<svg width="16" height="15" viewBox="0 0 16 15" fill="none" xmlns="http://www.w3.org/2000/svg">
<path d="M11.473 10C11.3605 8.98614 10.9069 8.04058 10.1865 7.31836C9.46607 6.59614 8.52167 6.14011 7.5081 6.02504C6.49452 5.90997 5.47193 6.14268 4.60796 6.68502C3.744 7.22737 3.08994 8.04716 2.75301 9.01C1.98095 9.07319 1.26326 9.43258 0.750174 10.0129C0.237086 10.5933 -0.0316242 11.3496 0.00029138 12.1236C0.0322069 12.8976 0.362274 13.6292 0.9214 14.1654C1.48053 14.7015 2.22537 15.0006 3.00001 15H11.5C12.1631 15 12.7989 14.7366 13.2678 14.2678C13.7366 13.7989 14 13.163 14 12.5C14 11.837 13.7366 11.2011 13.2678 10.7322C12.7989 10.2634 12.1631 10 11.5 10H11.473Z" fill="black"/>
<path d="M11.286 0.777987C11.3435 0.691977 11.3729 0.590257 11.3701 0.486848C11.3674 0.383438 11.3326 0.28343 11.2706 0.200608C11.2086 0.117785 11.1225 0.0562248 11.0241 0.0244127C10.9256 -0.00739937 10.8198 -0.00789749 10.721 0.022987C9.68562 0.347244 8.79836 1.02743 8.21635 1.9431C7.63433 2.85877 7.3951 3.95086 7.54103 5.02599C7.89871 5.06076 8.25209 5.13077 8.59603 5.23499C8.44161 4.57689 8.47544 3.88863 8.69365 3.24884C8.91187 2.60906 9.30566 2.04357 9.83003 1.61699C9.65683 2.28481 9.63631 2.98307 9.76998 3.65991C9.90366 4.33675 10.1881 4.97478 10.6022 5.52662C11.0162 6.07846 11.5493 6.52992 12.1618 6.84749C12.7743 7.16506 13.4504 7.34057 14.14 7.36099C13.4847 7.81647 12.6958 8.03964 11.899 7.99499C12.061 8.31199 12.194 8.64699 12.293 8.99499C13.015 8.96424 13.7196 8.76346 14.3493 8.40897C14.9791 8.05448 15.5162 7.5563 15.917 6.95499C15.9745 6.86898 16.0039 6.76726 16.0011 6.66385C15.9984 6.56044 15.9636 6.46043 15.9016 6.37761C15.8396 6.29478 15.7535 6.23322 15.6551 6.20141C15.5566 6.1696 15.4508 6.1691 15.352 6.19999C14.6427 6.42262 13.8818 6.41976 13.1742 6.1918C12.4666 5.96384 11.8472 5.522 11.4012 4.92718C10.9553 4.33237 10.7048 3.61388 10.6844 2.87074C10.6639 2.12761 10.8745 1.39643 11.287 0.777987H11.286Z" fill="black"/>
</svg>
