<svg width="20" height="12" viewBox="0 0 20 12" fill="none" xmlns="http://www.w3.org/2000/svg">
<path d="M18.3 4.49999C15 -0.100009 8.50002 -1.20001 3.90002 2.19999C2.70002 3.09999 1.70002 4.29999 0.900024 5.59999C1.10002 5.99999 1.40002 6.39999 1.70002 6.79999C5.00002 11.4 11.3 12.4 15.9 9.19999C16.8 8.49999 17.6 7.79999 18.3 6.79999C18.6 6.39999 18.8 5.99999 19.1 5.59999C18.8 5.19999 18.6 4.79999 18.3 4.49999V4.49999ZM10.1 2.19999C10.6 1.69999 11.4 1.69999 11.9 2.19999C12.4 2.69999 12.4 3.49999 11.9 3.99999C11.4 4.49999 10.6 4.49999 10.1 3.99999C9.60003 3.49999 9.60003 2.69999 10.1 2.19999ZM10 9.89999C6.90002 9.89999 4.00002 8.29999 2.30002 5.69999C3.50002 3.99999 5.10002 2.79999 7.00002 2.19999C6.30002 2.99999 6.00002 3.89999 6.00002 4.89999C6.00002 7.09999 7.70002 8.99999 10 8.99999C12.2 8.99999 14.1 7.29999 14.1 4.99999V4.89999C14.1 3.89999 13.7 2.89999 13 2.19999C14.9 2.79999 16.5 3.99999 17.7 5.69999C16 8.29999 13.1 9.89999 10 9.89999V9.89999Z" fill="black"/>
</svg>
